<svg width="31" height="32" viewBox="0 0 31 32" fill="none" xmlns="http://www.w3.org/2000/svg">
<path d="M22.207 18.0601C24.2347 17.6086 24.2347 14.7183 22.207 14.2667L19.9174 13.7569C19.1849 13.5938 18.6119 13.0235 18.4451 12.2919L17.9081 9.93522C17.4489 7.91997 14.5781 7.91997 14.1189 9.93522L13.5819 12.2919C13.4152 13.0235 12.8421 13.5938 12.1097 13.7569L9.82007 14.2667C7.79234 14.7183 7.79234 17.6086 9.82007 18.0601L12.1097 18.57C12.8421 18.7331 13.4152 19.3033 13.5819 20.035L14.1189 22.3916C14.5781 24.4069 17.4489 24.4069 17.9081 22.3916L18.4451 20.035C18.6119 19.3033 19.1849 18.7331 19.9174 18.57L22.207 18.0601Z" fill="#DCDBCE"/>
<path d="M10.1349 21.2529C9.69912 21.2529 9.34581 21.6062 9.34581 22.042C9.34581 22.4778 9.69912 22.8312 10.1349 22.8312C10.5708 22.8312 10.9241 22.4778 10.9241 22.042C10.9241 21.6062 10.5708 21.2529 10.1349 21.2529Z" fill="#1D1C1C"/>
<path d="M21.3908 9.99698C20.955 9.99698 20.6017 10.3503 20.6017 10.7861C20.6017 11.2219 20.955 11.5753 21.3908 11.5753C21.8267 11.5753 22.18 11.2219 22.18 10.7861C22.18 10.3503 21.8267 9.99698 21.3908 9.99698Z" fill="#888888"/>
<circle cx="15.2367" cy="15.2367" r="13.7367" transform="matrix(1 0 0 -1 0.526245 31.2487)" stroke="#DCDBCE" stroke-width="3"/>
</svg>
